<svg width="1430" height="362" viewBox="0 0 1430 362" fill="none" xmlns="http://www.w3.org/2000/svg">
<path fill-rule="evenodd" clip-rule="evenodd" d="M643.436 -25.2992C487.774 -29.3763 116.731 -18.7016 116.731 -18.7016C116.731 -18.7016 9.03512 -66.4316 -12.5038 54.3869C-34.0427 175.205 652.816 133.97 652.816 133.97L978.364 362L1269.8 362L1430 -18.7017C1430 -18.7017 783.741 -21.6243 643.436 -25.2992Z" fill="url(#paint0_linear_4535_1604)"/>
<line y1="-1" x2="72.438" y2="-1" transform="matrix(-0.28316 0.959073 -0.978163 -0.207837 1174.68 267.608)" stroke="white" stroke-width="2"/>
<line y1="-1" x2="196.521" y2="-1" transform="matrix(-0.971778 0.235896 -0.306237 -0.951955 1072.97 137.918)" stroke="white" stroke-width="2"/>
<line y1="-1" x2="176.99" y2="-1" transform="matrix(-0.51795 0.855411 -0.914423 -0.404759 1124.48 196.64)" stroke="white" stroke-width="2"/>
<line y1="-1" x2="138.635" y2="-1" transform="matrix(-0.999524 0.030862 -0.0339909 -0.999422 1053.11 73)" stroke="white" stroke-width="2"/>
<path d="M1093.37 176.676C1085.71 178.524 1078.82 180.161 1071.95 181.849C1057.64 185.361 1043.36 188.937 1029.04 192.381C1028.03 192.624 1026.77 192.131 1025.63 191.995C1026.39 191.203 1026.95 190.12 1027.93 189.637C1054.4 176.95 1080.75 164.067 1107.53 151.857C1115.23 148.348 1118.64 142.742 1123.08 136.984C1117.42 133.262 1111.93 129.716 1106.54 126.117C1102.55 123.438 1098.72 120.566 1094.59 118.101C1093.05 117.185 1090.72 117.057 1088.74 116.819C1054.49 112.777 1020.23 108.747 985.95 104.728C985.582 104.73 985.219 104.668 984.884 104.544C983.815 103.94 982.789 103.275 981.752 102.634C982.728 102.022 983.615 101.066 984.698 100.848C990.041 99.7711 995.443 98.8909 1000.82 97.9329C1038.69 91.1931 1076.54 84.3341 1114.47 77.8515C1119.04 77.0727 1124.14 78.035 1128.89 78.6542C1142.38 80.4047 1155.79 82.4612 1169.27 84.2211C1171.97 84.5767 1173.3 85.5529 1174.07 87.6669C1175.78 92.3524 1177.78 96.9578 1179.52 101.633C1180.11 103.189 1180.91 103.683 1182.93 103.436C1194.45 102.042 1205.93 100.76 1217.44 99.5009C1218.56 99.3793 1219.74 99.6622 1220.9 99.7566C1220.64 100.777 1220.65 101.916 1220.08 102.81C1214.77 111.23 1209.4 119.683 1203.9 128.052C1202.78 129.76 1202.93 130.67 1204.85 131.804C1209.93 134.805 1214.82 138.042 1219.82 141.1C1222.78 142.931 1224.08 144.862 1222.92 148.297C1218.88 160.259 1215.46 172.327 1211.46 184.251C1210.52 187.039 1208.28 189.579 1206.52 192.201C1185.73 223.183 1164.93 254.159 1144.11 285.129C1143.81 285.597 1143.64 286.177 1143.2 286.45C1142.28 286.956 1141.32 287.407 1140.33 287.8C1139.92 286.887 1139.01 285.874 1139.17 285.026C1140.24 279.781 1141.61 274.575 1142.77 269.342C1148.64 243.056 1154.48 216.761 1160.28 190.459C1160.57 189.058 1160.42 187.621 1159.85 186.289C1156.63 179.238 1153.12 172.281 1149.9 165.231C1149.09 163.463 1148.14 163.272 1146.08 163.65C1139.47 164.87 1134.07 167.517 1129.12 171.533C1108.05 188.497 1086.67 205.164 1065.42 221.956C1063.73 223.29 1062.26 224.831 1060.51 226.105C1059.79 226.633 1058.61 226.719 1057.64 227.004C1057.74 226.079 1057.48 224.996 1057.99 224.284C1060.07 221.378 1062.44 218.623 1064.58 215.753C1073.55 203.728 1082.49 191.692 1091.41 179.644C1091.99 178.865 1092.45 178.076 1093.37 176.676ZM1121.17 144.771C1122.68 144.276 1123.14 144.202 1123.53 144.018C1135.45 138.349 1147.38 132.698 1159.24 126.98C1160.47 126.322 1161.51 125.445 1162.29 124.412C1166.96 118.627 1171.61 112.828 1176.04 106.918C1176.85 105.737 1177.08 104.348 1176.71 103.033C1175.13 98.4278 1173.12 93.9332 1171.41 89.3584C1170.79 87.6931 1169.76 86.9271 1167.64 86.6741C1157.77 85.3927 1147.95 83.935 1138.1 82.5747C1131.91 81.715 1125.71 80.9155 1119.14 80.0409C1119.36 81.0002 1119.44 81.4827 1119.58 81.9502C1123.93 96.7067 1128.34 111.453 1132.56 126.235C1132.85 127.631 1132.55 129.071 1131.71 130.309C1128.54 134.922 1125.08 139.445 1121.17 144.771ZM1142.4 161.226L1142.9 161.773C1147.1 160.758 1151.38 159.889 1155.48 158.599C1158.11 157.771 1159.96 158.242 1162.13 159.467C1176.16 167.373 1190.26 175.171 1204.35 182.982C1205.41 183.568 1206.49 184.121 1207.61 184.709C1207.9 184.358 1208.16 183.983 1208.36 183.591C1212.23 171.213 1216.12 158.834 1219.83 146.437C1220.08 145.601 1219.23 144.144 1218.38 143.549C1214.41 140.869 1209.98 138.614 1206.21 135.755C1202.14 132.662 1198 132.213 1192.83 133.467C1186.19 135.075 1178.7 135.061 1172.8 137.7C1166.91 140.339 1162.39 145.416 1157.31 149.426C1152.33 153.358 1147.36 157.291 1142.4 161.226ZM1002.4 100.324L1002.35 101.192L1122.31 102.084L1115.78 80.1612L1002.4 100.324ZM1202.63 110.054L1202.07 109.605C1200.68 110.253 1199.29 110.893 1197.91 111.542C1174.83 122.549 1151.88 133.775 1128.58 144.437C1120.41 148.164 1113.96 152.652 1109.77 159.649C1107.34 163.72 1104.12 167.463 1100.7 172.077C1111.38 169.447 1121.11 167.153 1130.74 164.615C1133.16 163.989 1135.39 162.929 1137.27 161.51C1152.59 149.65 1167.72 137.637 1182.92 125.655C1189.5 120.463 1196.07 115.263 1202.63 110.054ZM1186.83 176.649C1173.36 209.506 1160.07 241.954 1146.77 274.397L1147.57 274.67C1167.09 245.641 1186.63 216.55 1206.19 187.398L1186.83 176.649ZM1147.34 262.991L1148.08 263.15L1184.18 175.176L1168.75 166.6C1161.54 199.056 1154.44 231.026 1147.34 262.996L1147.34 262.991ZM1006.39 104.475L1127.17 118.762C1126.25 115.512 1125.56 112.926 1124.78 110.355C1123.11 104.64 1123.1 104.622 1116.07 104.551C1087.81 104.349 1059.49 104.088 1031.17 103.975C1022.78 103.929 1014.37 104.304 1006.41 104.479L1006.39 104.475ZM1069.4 214.489L1069.9 214.823L1128.34 168.714C1119.23 170.35 1110.23 172.376 1101.36 174.784C1099.45 175.303 1097.8 176.327 1096.64 177.702C1087.95 189.134 1079.45 200.683 1070.9 212.186C1070.35 212.927 1069.91 213.721 1069.42 214.493L1069.4 214.489ZM1110.35 154.147L1109.73 153.607L1042.7 185.566C1043.34 186.013 1043.82 186.09 1044.2 185.994C1060.82 181.938 1077.43 177.856 1094.04 173.751C1095.2 173.488 1096.22 172.91 1096.95 172.109C1101.5 166.164 1105.91 160.145 1110.35 154.147ZM1215.59 104.436L1214.92 103.961L1177.63 133.382C1184.56 132.5 1191.42 131.287 1198.19 129.751C1199.08 129.468 1199.83 128.922 1200.28 128.215C1205.43 120.31 1210.5 112.366 1215.59 104.436ZM1167.97 122.004L1168.49 122.624L1207.66 103.919C1199.43 104.249 1191.22 104.975 1183.07 106.094C1181.54 106.303 1180.14 106.974 1179.15 107.979C1175.28 112.557 1171.67 117.31 1167.97 122.004V122.004ZM1101.05 118.286L1100.7 118.986L1124.69 134.716C1125.63 133.515 1126.24 132.754 1126.83 131.98C1127.55 131.041 1128.31 130.102 1128.97 129.101C1130.54 126.69 1128.87 121.723 1126.25 121.37C1117.85 120.268 1109.46 119.314 1101.05 118.286ZM1151.95 162.538L1161.32 181.981C1163.17 176.888 1164.61 171.696 1165.61 166.443C1165.65 166.106 1165.61 165.767 1165.49 165.444C1165.38 165.121 1165.18 164.821 1164.93 164.562C1161.25 161.138 1157.69 160.557 1151.95 162.538Z" fill="white"/>
<defs>
<linearGradient id="paint0_linear_4535_1604" x1="223.651" y1="90.631" x2="964.688" y2="759.84" gradientUnits="userSpaceOnUse">
<stop stop-color="#AE0000"/>
<stop offset="1" stop-color="#EB0000"/>
</linearGradient>
</defs>
</svg>
