<?xml version="1.0" encoding="utf-8"?>
<!-- Generator: Adobe Illustrator 26.0.3, SVG Export Plug-In . SVG Version: 6.00 Build 0)  -->
<svg version="1.1" id="Layer_1" xmlns="http://www.w3.org/2000/svg" xmlns:xlink="http://www.w3.org/1999/xlink" x="0px" y="0px"
	 viewBox="0 0 1440 900.9" style="enable-background:new 0 0 1440 900.9;" xml:space="preserve">
<style type="text/css">
	.st0{fill:none;stroke:#CCCCCC;stroke-width:3;}
	.st1{fill-rule:evenodd;clip-rule:evenodd;fill:url(#SVGID_1_);}
	.st2{fill:#4974D8;}
	.st3{fill:#FFFFFF;}
	.st4{fill:none;stroke:#FFFFFF;stroke-width:2;}
</style>
<path class="st0" d="M-973,832L970.5,322"/>
<path class="st0" d="M1124,328c4-5,7-10,11-16c49-64,92-120,141-184c24-30,44-57,68-87c21-28,40-53,61-81c17-22,33-43,49.6-64"/>
<path class="st0" d="M676.3,910.7"/>
<path class="st0" d="M-1031.4,308L975.4,76.3"/>
<linearGradient id="SVGID_1_" gradientUnits="userSpaceOnUse" x1="218.0712" y1="2458.675" x2="1722.3309" y2="1652.467" gradientTransform="matrix(1 0 0 -1 0 1912)">
	<stop  offset="0" style="stop-color:#AE0000"/>
	<stop  offset="1" style="stop-color:#EB0000"/>
</linearGradient>
<path class="st1" d="M610.8-433.2c-224-9.9-758.1,16-758.1,16s-155-115.8-186,177.2S624.3-47,624.3-47l468.5,553h419.5l230.6-923.2
	C1742.8-417.2,812.7-424.3,610.8-433.2z"/>
<path class="st2" d="M1112.4,271.9c-10.8,2.7-20.5,5.2-30.2,7.7c-20.2,5.2-40.3,10.5-60.6,15.6c-1.4,0.4-3.2-0.5-4.8-0.8
	c1.1-1.3,1.9-3,3.3-3.8c37.5-19.8,74.9-39.8,112.9-58.8c10.9-5.5,15.9-14.5,22.3-23.7c-7.8-6.3-15.4-12.3-22.9-18.3
	c-5.5-4.5-10.8-9.3-16.5-13.5c-2.1-1.6-5.4-1.8-8.2-2.3c-47.9-7.8-95.9-15.6-143.9-23.4c-0.5,0-1-0.1-1.5-0.3
	c-1.5-1-2.9-2.1-4.3-3.2c1.4-1,2.7-2.5,4.2-2.8c7.5-1.6,15.1-2.8,22.7-4.2c53.4-9.6,106.7-19.5,160.2-28.7
	c6.4-1.1,13.5,0.6,20.2,1.8c18.9,3.3,37.6,7.2,56.5,10.5c3.8,0.7,5.6,2.3,6.6,5.8c2.3,7.7,4.9,15.3,7.2,23c0.8,2.6,1.9,3.4,4.7,3.1
	c16.2-1.9,32.4-3.5,48.6-5.2c1.6-0.2,3.2,0.3,4.8,0.5c-0.4,1.7-0.4,3.5-1.2,5c-7.7,13.6-15.5,27.2-23.5,40.6
	c-1.6,2.7-1.5,4.2,1.2,6.2c7,5.1,13.8,10.5,20.7,15.7c4.1,3.1,5.9,6.3,4.1,11.9c-6,19.4-11.2,39-17.2,58.3
	c-1.4,4.5-4.6,8.6-7.2,12.8c-30.2,49.8-60.3,99.6-90.5,149.4c-0.4,0.8-0.7,1.7-1.3,2.1c-1.3,0.8-2.7,1.5-4.1,2.1
	c-0.5-1.5-1.8-3.2-1.5-4.6c1.7-8.5,3.8-17,5.5-25.5c9.1-42.7,18.1-85.4,27-128.1c0.5-2.3,0.3-4.6-0.5-6.8
	c-4.3-11.6-9-23.1-13.3-34.7c-1.1-2.9-2.4-3.3-5.3-2.7c-9.3,1.8-17,5.9-24.1,12.3c-30.1,26.9-60.6,53.4-91,80
	c-2.4,2.1-4.5,4.6-7,6.6c-1,0.8-2.7,0.9-4,1.4c0.2-1.5-0.2-3.3,0.6-4.4c3-4.7,6.4-9.1,9.5-13.7c13-19.3,25.9-38.6,38.8-58
	C1110.4,275.4,1111,274.2,1112.4,271.9z M1152.4,220.8c2.1-0.8,2.8-0.9,3.3-1.1c16.9-8.8,33.8-17.6,50.7-26.5c1.8-1,3.2-2.4,4.4-4.1
	c6.7-9.3,13.4-18.6,19.8-28.1c1.2-1.9,1.5-4.2,1.1-6.3c-2.1-7.6-4.8-15-7-22.5c-0.8-2.7-2.2-4-5.2-4.5c-13.8-2.4-27.6-5.2-41.3-7.8
	c-8.7-1.6-17.3-3.2-26.5-4.8c0.3,1.6,0.4,2.4,0.5,3.1c5.7,24.2,11.4,48.5,16.9,72.8c0.4,2.3-0.1,4.6-1.3,6.6
	C1163,205,1158,212.3,1152.4,220.8z M1181.7,248.5l0.7,0.9c5.9-1.5,12-2.8,17.8-4.7c3.7-1.3,6.3-0.4,9.3,1.7
	c19.4,13.4,39,26.6,58.5,39.9c1.5,1,3,1.9,4.5,2.9c0.4-0.6,0.8-1.2,1.1-1.8c5.8-20.1,11.7-40.1,17.2-60.2c0.4-1.4-0.8-3.8-2-4.8
	c-5.5-4.5-11.6-8.4-16.8-13.2c-5.6-5.2-11.4-6.1-18.7-4.2c-9.4,2.4-19.9,2.1-28.2,6.2c-8.4,4.1-14.8,12.2-22.1,18.6
	C1195.9,236,1188.8,242.2,1181.7,248.5z M987.1,144l-0.1,1.4l168.4,5.8l-8.5-36L987.1,144z M1267.8,167.1l-0.8-0.8c-2,1-3.9,2-5.9,3
	c-32.7,17.1-65.3,34.6-98.3,51.2c-11.6,5.8-20.8,12.9-26.9,24.2c-3.6,6.6-8.2,12.6-13.1,20c15.1-3.9,28.8-7.3,42.4-11.1
	c3.4-0.9,6.6-2.6,9.3-4.8c21.9-18.8,43.5-37.9,65.2-56.9C1249.1,183.6,1258.4,175.4,1267.8,167.1z M1243.6,275.2
	c-19.9,53.2-39.6,105.6-59.2,158.1l1.1,0.5c28.3-46.7,56.6-93.5,85-140.4L1243.6,275.2z M1185.5,414.8l1,0.3l53.4-142.3l-21.4-14.6
	C1207.4,310.9,1196.4,362.8,1185.5,414.8L1185.5,414.8z M992.5,150.9l169.1,27.7c-1.2-5.3-2.1-9.6-3.1-13.8
	c-2.2-9.4-2.2-9.4-12.1-9.8c-39.7-1.3-79.4-2.8-119.1-4C1015.5,150.6,1003.7,150.9,992.5,150.9L992.5,150.9z M1077.6,332.8l0.7,0.6
	l83.5-73.2c-12.8,2.3-25.5,5.3-38.1,8.9c-2.7,0.8-5.1,2.4-6.7,4.6c-12.6,18.3-24.8,36.9-37.2,55.4
	C1078.9,330.3,1078.3,331.5,1077.6,332.8L1077.6,332.8z M1136.9,235.7l-0.8-0.9l-95.1,49.8c0.9,0.8,1.5,0.9,2.1,0.8
	c23.5-6,46.9-12.1,70.3-18.2c1.6-0.4,3.1-1.3,4.1-2.6C1124.1,255,1130.5,245.4,1136.9,235.7z M1286.2,158.4l-0.9-0.8l-53.2,46.7
	c9.8-1.2,19.4-2.9,29-5.2c1.3-0.4,2.3-1.3,3-2.4C1271.4,183.9,1278.8,171.2,1286.2,158.4z M1218.8,185.4l0.7,1l55.6-29.1
	c-11.6,0.2-23.1,1.1-34.6,2.7c-2.2,0.3-4.1,1.3-5.6,2.9C1229.3,170.2,1224.1,177.8,1218.8,185.4z M1125,176.9l-0.5,1.1l33.2,26.5
	c1.4-1.9,2.2-3.1,3.1-4.4c1-1.5,2.1-3,3.1-4.6c2.3-3.9,0.1-12-3.6-12.7C1148.5,180.7,1136.7,178.9,1125,176.9z M1195,250.9
	l12.5,32.1c2.8-8.2,4.9-16.7,6.5-25.2c0.1-0.5,0-1.1-0.1-1.6c-0.2-0.5-0.4-1-0.8-1.5C1208.1,249,1203.2,247.9,1195,250.9z"/>
<path class="st3" d="M1112.4,271.9c-10.8,2.7-20.5,5.2-30.2,7.7c-20.2,5.2-40.3,10.5-60.6,15.6c-1.4,0.4-3.2-0.5-4.8-0.8
	c1.1-1.3,1.9-3,3.3-3.8c37.5-19.8,74.9-39.8,112.9-58.8c10.9-5.5,15.9-14.5,22.3-23.7c-7.8-6.3-15.4-12.3-22.9-18.3
	c-5.5-4.5-10.8-9.3-16.5-13.5c-2.1-1.6-5.4-1.8-8.2-2.3c-47.9-7.8-95.9-15.6-143.9-23.4c-0.5,0-1-0.1-1.5-0.3
	c-1.5-1-2.9-2.1-4.3-3.2c1.4-1,2.7-2.5,4.2-2.8c7.5-1.6,15.1-2.8,22.7-4.2c53.4-9.6,106.7-19.5,160.2-28.7
	c6.4-1.1,13.5,0.6,20.2,1.8c18.9,3.3,37.6,7.2,56.5,10.5c3.8,0.7,5.6,2.3,6.6,5.8c2.3,7.7,4.9,15.3,7.2,23c0.8,2.6,1.9,3.4,4.7,3.1
	c16.2-1.9,32.4-3.5,48.6-5.2c1.6-0.2,3.2,0.3,4.8,0.5c-0.4,1.7-0.4,3.5-1.2,5c-7.7,13.6-15.5,27.2-23.5,40.6
	c-1.6,2.7-1.5,4.2,1.2,6.2c7,5.1,13.8,10.5,20.7,15.7c4.1,3.1,5.9,6.3,4.1,11.9c-6,19.4-11.2,39-17.2,58.3
	c-1.4,4.5-4.6,8.6-7.2,12.8c-30.2,49.8-60.3,99.6-90.5,149.4c-0.4,0.8-0.7,1.7-1.3,2.1c-1.3,0.8-2.7,1.5-4.1,2.1
	c-0.5-1.5-1.8-3.2-1.5-4.6c1.7-8.5,3.8-17,5.5-25.5c9.1-42.7,18.1-85.4,27-128.1c0.5-2.3,0.3-4.6-0.5-6.8
	c-4.3-11.6-9-23.1-13.3-34.7c-1.1-2.9-2.4-3.3-5.3-2.7c-9.3,1.8-17,5.9-24.1,12.3c-30.1,26.9-60.6,53.4-91,80
	c-2.4,2.1-4.5,4.6-7,6.6c-1,0.8-2.7,0.9-4,1.4c0.2-1.5-0.2-3.3,0.6-4.4c3-4.7,6.4-9.1,9.5-13.7c13-19.3,25.9-38.6,38.8-58
	C1110.4,275.4,1111,274.2,1112.4,271.9z M1152.4,220.8c2.1-0.8,2.8-0.9,3.3-1.1c16.9-8.8,33.8-17.6,50.7-26.5c1.8-1,3.2-2.4,4.4-4.1
	c6.7-9.3,13.4-18.6,19.8-28.1c1.2-1.9,1.5-4.2,1.1-6.3c-2.1-7.6-4.8-15-7-22.5c-0.8-2.7-2.2-4-5.2-4.5c-13.8-2.4-27.6-5.2-41.3-7.8
	c-8.7-1.6-17.3-3.2-26.5-4.8c0.3,1.6,0.4,2.4,0.5,3.1c5.7,24.2,11.4,48.5,16.9,72.8c0.4,2.3-0.1,4.6-1.3,6.6
	C1163,205,1158,212.3,1152.4,220.8z M1181.7,248.5l0.7,0.9c5.9-1.5,12-2.8,17.8-4.7c3.7-1.3,6.3-0.4,9.3,1.7
	c19.4,13.4,39,26.6,58.5,39.9c1.5,1,3,1.9,4.5,2.9c0.4-0.6,0.8-1.2,1.1-1.8c5.8-20.1,11.7-40.1,17.2-60.2c0.4-1.4-0.8-3.8-2-4.8
	c-5.5-4.5-11.6-8.4-16.8-13.2c-5.6-5.2-11.4-6.1-18.7-4.2c-9.4,2.4-19.9,2.1-28.2,6.2c-8.4,4.1-14.8,12.2-22.1,18.6
	C1195.9,236,1188.8,242.2,1181.7,248.5z M987.1,144l-0.1,1.4l168.4,5.8l-8.5-36L987.1,144z M1267.8,167.1l-0.8-0.8c-2,1-3.9,2-5.9,3
	c-32.7,17.1-65.3,34.6-98.3,51.2c-11.6,5.8-20.8,12.9-26.9,24.2c-3.6,6.6-8.2,12.6-13.1,20c15.1-3.9,28.8-7.3,42.4-11.1
	c3.4-0.9,6.6-2.6,9.3-4.8c21.9-18.8,43.5-37.9,65.2-56.9C1249.1,183.6,1258.4,175.4,1267.8,167.1z M1243.6,275.2
	c-19.9,53.2-39.6,105.6-59.2,158.1l1.1,0.5c28.3-46.7,56.6-93.5,85-140.4L1243.6,275.2z M1185.5,414.8l1,0.3l53.4-142.3l-21.4-14.6
	C1207.4,310.9,1196.4,362.8,1185.5,414.8L1185.5,414.8z M992.5,150.9l169.1,27.7c-1.2-5.3-2.1-9.6-3.1-13.8
	c-2.2-9.4-2.2-9.4-12.1-9.8c-39.7-1.3-79.4-2.8-119.1-4C1015.5,150.6,1003.7,150.9,992.5,150.9L992.5,150.9z M1077.6,332.8l0.7,0.6
	l83.5-73.2c-12.8,2.3-25.5,5.3-38.1,8.9c-2.7,0.8-5.1,2.4-6.7,4.6c-12.6,18.3-24.8,36.9-37.2,55.4
	C1078.9,330.3,1078.3,331.5,1077.6,332.8L1077.6,332.8z M1136.9,235.7l-0.8-0.9l-95.1,49.8c0.9,0.8,1.5,0.9,2.1,0.8
	c23.5-6,46.9-12.1,70.3-18.2c1.6-0.4,3.1-1.3,4.1-2.6C1124.1,255,1130.5,245.4,1136.9,235.7z M1286.2,158.4l-0.9-0.8l-53.2,46.7
	c9.8-1.2,19.4-2.9,29-5.2c1.3-0.4,2.3-1.3,3-2.4C1271.4,183.9,1278.8,171.2,1286.2,158.4z M1218.8,185.4l0.7,1l55.6-29.1
	c-11.6,0.2-23.1,1.1-34.6,2.7c-2.2,0.3-4.1,1.3-5.6,2.9C1229.3,170.2,1224.1,177.8,1218.8,185.4z M1125,176.9l-0.5,1.1l33.2,26.5
	c1.4-1.9,2.2-3.1,3.1-4.4c1-1.5,2.1-3,3.1-4.6c2.3-3.9,0.1-12-3.6-12.7C1148.5,180.7,1136.7,178.9,1125,176.9z M1195,250.9
	l12.5,32.1c2.8-8.2,4.9-16.7,6.5-25.2c0.1-0.5,0-1.1-0.1-1.6c-0.2-0.5-0.4-1-0.8-1.5C1208.1,249,1203.2,247.9,1195,250.9z"/>
<line class="st4" x1="1225.9" y1="420.4" x2="1122.9" y2="660.4"/>
<line class="st4" x1="1086.2" y1="205" x2="816.2" y2="274"/>
<line class="st4" x1="1157.5" y1="302.5" x2="1023.9" y2="547"/>
<line class="st4" x1="993.1" y1="112" x2="586.1" y2="170.5"/>
</svg>
