<svg width="127" height="35" viewBox="0 0 127 35" fill="#E10000" xmlns="http://www.w3.org/2000/svg">
	<path fill-rule="evenodd" clip-rule="evenodd" d="M90.9418 19.5153C90.0785 19.5153 89.2863 19.7505 88.5802 20.1617L79.8357 6.91337L70.3141 17.6445L63.6164 6.91337L53.4594 19.0146C53.5023 18.6471 53.5172 18.293 53.5172 17.9112C53.5172 14.9666 52.4943 12.2571 50.8089 10.1379L32.989 26.2423C35.1505 28.67 38.2472 30.1865 41.6758 30.1865C43.3323 30.1865 44.9171 29.8333 46.3424 29.2012C48.0428 28.5233 49.6275 27.4638 50.8955 25.9919L56.874 19.0441L63.4701 29.5545L72.892 18.9546L79.75 29.7753L86.2036 23.2387C86.2185 23.2529 86.2325 23.2529 86.2464 23.2529C86.1309 23.6661 86.0751 24.108 86.0751 24.5629C86.0751 27.3457 88.2635 29.6125 90.9418 29.6125C91.3316 29.6125 91.7073 29.5545 92.0661 29.4649C93.464 29.2307 94.2704 28.7299 95.4809 27.7579L104.383 17.9988C104.426 24.7125 109.728 30.1733 116.209 30.1733C120.994 30.1733 125.129 27.1991 127 22.9293L124.219 22.915C119.611 28.5528 112.494 29.245 108.648 22.6798L117.464 13.39C117.449 13.3329 117.003 14.6572 117.046 14.9075C117.046 16.9962 117.579 17.9387 119.395 19.0747C125.717 21.2508 129.046 10.9034 121.612 7.03245C120.157 6.19171 118.241 5.64716 116.209 5.64716C111.284 5.64716 107.033 8.79843 105.263 13.2597L100.868 6.84008L87.0961 6.90014L97.0937 22.5038L95.7687 23.9746C95.4809 21.4737 93.4214 19.5153 90.9418 19.5153ZM41.676 5.64723C35.1646 5.64723 29.8336 11.168 29.8336 17.9113C29.8336 19.4258 30.1085 20.8834 30.5976 22.2392L25.3402 26.905C25.1679 27.0821 24.9947 27.0821 24.8213 26.905C21.5791 22.9446 18.3378 18.9708 15.0966 15.0247C15.0966 14.9667 15.0966 14.9371 15.0966 14.8934L21.7384 6.36889C21.8111 7.41421 23.3949 10.4464 26.3911 10.6093C28.5377 10.7263 30.2669 9.57918 31.1165 8.0463C32.269 5.98719 32.1535 3.67565 30.5398 1.67354C28.955 0.275017 28.0188 -0.0639266 25.9299 0.00935859C24.1151 0.215982 22.8919 0.995651 21.5651 2.40843L14.738 10.9472L14.752 1.08522L0.0288863 8.01882L0 35L14.752 27.8475V18.9546L24.7197 30.2609C24.8791 30.3942 25.0226 30.3942 25.2107 30.2609C27.3563 28.3188 29.5178 26.39 31.6644 24.4459C31.6644 24.4611 31.6783 24.4611 31.6783 24.4611L49.3538 8.59187C49.3388 8.59187 49.3248 8.57762 49.3248 8.56133C49.3248 8.56133 49.3388 8.5481 49.3538 8.5481C49.2392 8.44428 49.1237 8.371 49.0081 8.29771C46.9911 6.64879 44.4411 5.64723 41.676 5.64723ZM44.7011 18.514C46.9054 18.514 48.7063 20.458 48.7063 22.8276C48.7063 25.1972 46.9054 27.1392 44.7011 27.1392C42.4968 27.1392 40.6959 25.1972 40.6959 22.8276C40.6959 20.458 42.4968 18.514 44.7011 18.514Z" fill="none" />
</svg>
