<svg width="1380" height="371" viewBox="0 0 1380 371" fill="none" xmlns="http://www.w3.org/2000/svg">
<path fill-rule="evenodd" clip-rule="evenodd" d="M518.85 -481.204C294.796 -489.954 -239.27 -467.044 -239.27 -467.044C-239.27 -467.044 -394.283 -569.48 -425.286 -310.185C-456.288 -50.89 532.351 -139.387 532.351 -139.387L1000.93 350L1420.42 350L1651 -467.044C1651 -467.044 720.799 -473.317 518.85 -481.204Z" fill="url(#paint0_linear_4542_1607)"/>
<line x1="1129.9" y1="283.112" x2="1108.7" y2="360.379" stroke="white" stroke-width="2"/>
<line x1="1034.13" y1="136.121" x2="849.515" y2="183.302" stroke="white" stroke-width="2"/>
<line x1="1083.05" y1="202.642" x2="991.686" y2="369.864" stroke="white" stroke-width="2"/>
<line x1="970.438" y1="72.5513" x2="692.143" y2="112.58" stroke="white" stroke-width="2"/>
<path d="M1052.58 178.925C1045.19 180.797 1038.54 182.454 1031.91 184.167C1018.1 187.731 1004.31 191.368 990.491 194.855C989.515 195.102 988.317 194.521 987.224 194.341C987.974 193.477 988.538 192.283 989.488 191.769C1015.17 178.272 1040.73 164.554 1066.7 151.596C1074.16 147.872 1077.55 141.705 1081.94 135.394C1076.58 131.104 1071.39 127.015 1066.29 122.869C1062.52 119.783 1058.91 116.485 1054.99 113.636C1053.53 112.576 1051.3 112.376 1049.4 112.062C1016.61 106.712 983.807 101.375 950.985 96.0494C950.632 96.0433 950.285 95.9644 949.966 95.8179C948.953 95.1183 947.982 94.3519 947 93.6112C947.95 92.9528 948.821 91.9087 949.866 91.6926C955.017 90.6227 960.222 89.774 965.399 88.8379C1001.9 82.2539 1038.38 75.5362 1074.93 69.2403C1079.33 68.4841 1084.2 69.6826 1088.76 70.4902C1101.66 72.774 1114.5 75.3973 1127.4 77.6914C1129.98 78.1543 1131.24 79.2757 1131.93 81.6521C1133.48 86.9192 1135.3 92.1041 1136.87 97.361C1137.4 99.1099 1138.16 99.6808 1140.11 99.4545C1151.19 98.184 1162.24 97.037 1173.31 95.9156C1174.39 95.8076 1175.52 96.1522 1176.63 96.286C1176.36 97.4176 1176.34 98.6881 1175.78 99.6705C1170.5 108.929 1165.17 118.224 1159.72 127.421C1158.6 129.298 1158.73 130.317 1160.55 131.629C1165.36 135.101 1169.98 138.83 1174.72 142.363C1177.52 144.478 1178.73 146.664 1177.55 150.465C1173.41 163.705 1169.88 177.079 1165.78 190.277C1164.81 193.364 1162.61 196.141 1160.87 199.022C1140.26 233.059 1119.63 267.09 1098.99 301.114C1098.7 301.629 1098.52 302.272 1098.09 302.565C1097.2 303.107 1096.27 303.587 1095.3 304C1094.93 302.971 1094.08 301.819 1094.25 300.878C1095.39 295.055 1096.81 289.284 1098.04 283.477C1104.24 254.308 1110.39 225.129 1116.52 195.941C1116.83 194.386 1116.72 192.78 1116.19 191.28C1113.25 183.338 1110.03 175.494 1107.09 167.552C1106.35 165.562 1105.44 165.325 1103.46 165.695C1097.08 166.894 1091.85 169.713 1087.01 174.069C1066.42 192.469 1045.55 210.528 1024.79 228.732C1023.14 230.177 1021.7 231.859 1019.99 233.238C1019.29 233.809 1018.15 233.876 1017.22 234.169C1017.33 233.14 1017.11 231.926 1017.61 231.144C1019.66 227.955 1022 224.941 1024.11 221.793C1032.98 208.604 1041.82 195.402 1050.64 182.186C1051.2 181.332 1051.67 180.463 1052.58 178.925ZM1079.94 144.03C1081.4 143.516 1081.84 143.444 1082.22 143.248C1093.79 137.22 1105.36 131.212 1116.86 125.127C1118.06 124.423 1119.08 123.471 1119.85 122.339C1124.45 116.002 1129.03 109.649 1133.42 103.168C1134.21 101.871 1134.47 100.329 1134.14 98.8527C1132.72 93.6781 1130.89 88.6167 1129.35 83.4729C1128.79 81.6006 1127.81 80.7211 1125.78 80.3867C1116.34 78.715 1106.94 76.8478 1097.51 75.0887C1091.59 73.9776 1085.65 72.9335 1079.37 71.7967C1079.55 72.8717 1079.62 73.4118 1079.74 73.9365C1083.61 90.4993 1087.53 107.052 1091.27 123.64C1091.52 125.204 1091.2 126.802 1090.37 128.162C1087.23 133.228 1083.81 138.187 1079.94 144.03ZM1099.97 162.902L1100.44 163.525C1104.49 162.496 1108.62 161.632 1112.58 160.295C1115.13 159.436 1116.89 160.006 1118.95 161.426C1132.25 170.587 1145.62 179.63 1158.98 188.688C1159.99 189.367 1161.01 190.01 1162.08 190.694C1162.36 190.309 1162.61 189.897 1162.82 189.465C1166.79 175.757 1170.79 162.049 1174.62 148.315C1174.87 147.389 1174.09 145.743 1173.28 145.059C1169.53 141.973 1165.33 139.349 1161.77 136.068C1157.92 132.518 1153.96 131.917 1148.97 133.187C1142.57 134.818 1135.37 134.617 1129.66 137.415C1123.94 140.213 1119.5 145.763 1114.54 150.11C1109.68 154.372 1104.82 158.637 1099.97 162.902ZM966.872 91.5435L966.803 92.5105L1081.94 96.4557L1076.14 71.8481L966.872 91.5435ZM1158.88 107.319L1158.35 106.805C1157 107.494 1155.65 108.173 1154.32 108.862C1131.92 120.57 1109.66 132.524 1087.06 143.84C1079.14 147.795 1072.85 152.641 1068.69 160.341C1066.26 164.821 1063.1 168.915 1059.71 173.977C1070.03 171.307 1079.41 168.987 1088.71 166.395C1091.04 165.756 1093.2 164.629 1095.04 163.093C1110 150.244 1124.78 137.22 1139.62 124.232C1146.05 118.605 1152.47 112.967 1158.88 107.319ZM1142.29 181.193C1128.67 217.503 1115.22 253.36 1101.77 289.212L1102.54 289.536C1121.89 257.645 1141.26 225.685 1160.65 193.657L1142.29 181.193ZM1102.56 276.507L1103.27 276.702L1139.79 179.486L1125.16 169.543C1117.54 205.559 1110.06 241.036 1102.56 276.512V276.507ZM970.609 96.2705L1086.25 115.174C1085.44 111.527 1084.83 108.626 1084.14 105.74C1082.65 99.3259 1082.64 99.3053 1075.9 99.0533C1048.78 98.1326 1021.59 97.145 994.413 96.322C986.353 96.0648 978.272 96.2757 970.63 96.2757L970.609 96.2705ZM1028.77 220.502L1029.24 220.888L1086.32 170.906C1077.54 172.507 1068.85 174.544 1060.29 177.012C1058.45 177.543 1056.84 178.645 1055.7 180.149C1047.11 192.685 1038.71 205.354 1030.26 217.971C1029.72 218.784 1029.27 219.658 1028.79 220.507L1028.77 220.502ZM1069.36 154.22L1068.78 153.603L1003.75 187.592C1004.35 188.107 1004.81 188.204 1005.19 188.107C1021.22 183.992 1037.26 179.849 1053.28 175.679C1054.4 175.414 1055.4 174.796 1056.11 173.92C1060.61 167.403 1064.97 160.799 1069.36 154.22ZM1171.43 101.373L1170.81 100.828L1134.39 132.719C1141.05 131.905 1147.67 130.722 1154.2 129.175C1155.06 128.882 1155.78 128.291 1156.23 127.514C1161.35 118.826 1166.38 110.092 1171.43 101.373ZM1125.35 119.793L1125.84 120.497L1163.84 100.602C1155.92 100.767 1148.03 101.375 1140.18 102.422C1138.71 102.618 1137.36 103.331 1136.38 104.428C1132.57 109.438 1129 114.649 1125.35 119.793V119.793ZM1061.19 114.001L1060.84 114.773L1083.54 132.904C1084.47 131.587 1085.07 130.754 1085.65 129.905C1086.36 128.877 1087.11 127.848 1087.76 126.747C1089.32 124.098 1087.82 118.517 1085.32 118.059C1077.28 116.624 1069.24 115.354 1061.19 114.001ZM1109.12 164.6L1117.69 186.512C1119.58 180.879 1121.07 175.125 1122.14 169.291C1122.19 168.917 1122.16 168.537 1122.05 168.174C1121.95 167.811 1121.77 167.472 1121.53 167.177C1118.07 163.268 1114.66 162.532 1109.12 164.6Z" fill="white"/>
<defs>
<linearGradient id="paint0_linear_4542_1607" x1="-85.374" y1="-232.4" x2="1331.4" y2="625.689" gradientUnits="userSpaceOnUse">
<stop stop-color="#AE0000"/>
<stop offset="1" stop-color="#EB0000"/>
</linearGradient>
</defs>
</svg>
