<svg width="338" height="344" viewBox="0 0 338 344" fill="none" xmlns="http://www.w3.org/2000/svg">
<path d="M154.372 160.912C143.567 163.653 133.843 166.077 124.15 168.584C103.962 173.802 83.8036 179.126 63.5916 184.231C62.1639 184.592 60.4121 183.741 58.8145 183.478C59.9104 182.213 60.7362 180.466 62.1254 179.713C99.6707 159.956 137.054 139.874 175.016 120.907C185.936 115.456 190.891 106.428 197.312 97.1892C189.471 90.9096 181.877 84.9236 174.429 78.8548C168.904 74.337 163.625 69.5106 157.906 65.3392C155.769 63.7881 152.504 63.4945 149.734 63.0352C101.788 55.2044 53.8188 47.3913 5.82661 39.5957C5.31114 39.5869 4.80351 39.4714 4.33719 39.2569C2.85545 38.2328 1.43544 37.1109 0 36.0267C1.38914 35.0629 2.66246 33.5344 4.19051 33.2182C11.7227 31.652 19.3322 30.4096 26.903 29.0393C80.2768 19.4014 133.612 9.56786 187.055 0.351697C193.492 -0.755146 200.615 0.999233 207.275 2.18137C226.144 5.52449 244.913 9.36456 263.774 12.7227C267.548 13.4004 269.385 15.0418 270.404 18.5205C272.665 26.2307 275.327 33.8205 277.627 41.5157C278.399 44.0758 279.51 44.9116 282.358 44.5802C298.564 42.7205 314.717 41.0414 330.908 39.3999C332.49 39.2418 334.142 39.7463 335.762 39.9421C335.369 41.5986 335.338 43.4584 334.52 44.8965C326.802 58.4497 319 72.0556 311.028 85.5184C309.4 88.2667 309.585 89.7575 312.247 91.6776C319.278 96.76 326.039 102.219 332.961 107.392C337.067 110.486 338.834 113.686 337.098 119.251C331.055 138.632 325.884 158.209 319.895 177.529C318.483 182.047 315.265 186.113 312.718 190.33C282.574 240.155 252.414 289.971 222.239 339.776C221.807 340.529 221.552 341.47 220.919 341.899C219.614 342.693 218.252 343.395 216.844 344C216.304 342.494 215.054 340.808 215.301 339.43C216.968 330.906 219.052 322.458 220.85 313.957C229.905 271.26 238.909 228.547 247.861 185.82C248.317 183.544 248.154 181.193 247.39 178.998C243.084 167.372 238.384 155.89 234.077 144.264C232.997 141.35 231.67 141.004 228.768 141.546C219.445 143.3 211.79 147.426 204.713 153.804C174.615 180.737 144.092 207.173 113.747 233.82C111.332 235.936 109.217 238.398 106.724 240.416C105.698 241.252 104.039 241.35 102.673 241.779C102.835 240.273 102.511 238.496 103.244 237.352C106.246 232.683 109.657 228.271 112.752 223.663C125.717 204.357 138.646 185.031 151.54 165.686C152.365 164.436 153.044 163.163 154.372 160.912ZM194.387 109.831C196.517 109.078 197.165 108.973 197.721 108.687C214.63 99.8622 231.554 91.0677 248.37 82.1602C250.117 81.1306 251.608 79.737 252.738 78.0792C259.46 68.8028 266.167 59.5038 272.58 50.0166C273.74 48.1177 274.118 45.8597 273.637 43.6993C271.561 36.1246 268.883 28.7155 266.622 21.1859C265.804 18.4452 264.376 17.1576 261.405 16.6682C247.598 14.2211 233.854 11.4879 220.078 8.91279C211.411 7.28641 202.729 5.75791 193.546 4.09388C193.816 5.66756 193.916 6.45815 194.094 7.22617C199.75 31.4713 205.477 55.7014 210.948 79.9842C211.307 82.2729 210.841 84.6121 209.629 86.6027C205.037 94.0193 200.036 101.278 194.387 109.831ZM223.674 137.457L224.361 138.368C230.281 136.862 236.316 135.597 242.111 133.64C245.831 132.382 248.409 133.218 251.426 135.296C270.866 148.706 290.423 161.943 309.955 175.203C311.422 176.197 312.926 177.138 314.478 178.139C314.901 177.576 315.265 176.973 315.566 176.34C321.377 156.274 327.227 136.207 332.814 116.103C333.192 114.748 332.043 112.339 330.862 111.337C325.375 106.819 319.232 102.979 314.03 98.1756C308.404 92.9802 302.608 92.0992 295.315 93.959C285.954 96.3459 275.435 96.0522 267.077 100.148C258.719 104.244 252.229 112.369 244.967 118.731C237.862 124.971 230.764 131.213 223.674 137.457ZM29.0561 32.9998L28.9557 34.4154L197.312 40.1905L188.822 4.16917L29.0561 32.9998ZM309.801 56.0929L309.029 55.34C307.061 56.3489 305.086 57.3428 303.133 58.3518C270.388 75.489 237.836 92.9877 204.79 109.553C193.214 115.343 184.014 122.436 177.925 133.708C174.383 140.266 169.753 146.259 164.806 153.668C179.886 149.76 193.607 146.365 207.205 142.57C210.616 141.635 213.776 139.985 216.466 137.736C238.338 118.927 259.946 99.8622 281.648 80.8501C291.048 72.6128 300.432 64.3604 309.801 56.0929ZM285.553 164.232C265.634 217.383 245.97 269.872 226.306 322.353L227.425 322.827C255.722 276.144 284.045 229.36 312.394 182.476L285.553 164.232ZM227.456 303.755L228.49 304.041L281.887 161.732L260.494 147.178C249.366 199.9 238.415 251.831 227.456 303.762V303.755ZM34.5201 39.9195L203.609 67.5905C202.428 62.2521 201.533 58.0054 200.522 53.7814C198.346 44.392 198.33 44.3619 188.467 43.9929C148.815 42.6452 109.07 41.1995 69.3257 39.9948C57.5412 39.6183 45.7257 39.927 34.5509 39.927L34.5201 39.9195ZM119.558 221.773L120.253 222.338L203.709 149.173C190.874 151.516 178.17 154.499 165.647 158.111C162.957 158.889 160.599 160.501 158.933 162.704C146.377 181.053 134.09 199.599 121.743 218.069C120.948 219.258 120.299 220.538 119.589 221.781L119.558 221.773ZM178.913 124.747L178.057 123.844L82.9855 173.599C83.8576 174.352 84.5291 174.495 85.077 174.352C108.528 168.328 131.971 162.265 155.406 156.161C157.039 155.772 158.494 154.867 159.543 153.586C166.118 144.046 172.492 134.378 178.913 124.747ZM328.161 47.3888L327.242 46.5906L273.992 93.2738C283.74 92.0828 293.41 90.3507 302.956 88.086C304.219 87.6568 305.279 86.7919 305.935 85.6539C313.413 72.9365 320.775 60.1514 328.161 47.3888ZM260.78 74.3521L261.49 75.3836L317.055 46.2593C305.483 46.5018 293.934 47.3918 282.466 48.9248C280.309 49.2114 278.334 50.2555 276.909 51.8613C271.337 59.1951 266.12 66.8225 260.78 74.3521ZM166.967 65.8738L166.457 67.0032L199.642 93.5449C201.001 91.6173 201.88 90.3975 202.729 89.1552C203.771 87.6493 204.867 86.1434 205.816 84.532C208.093 80.6543 205.901 72.4848 202.243 71.8146C190.489 69.7139 178.736 67.8541 166.967 65.8738ZM237.041 139.942L249.582 172.018C252.344 163.771 254.518 155.348 256.088 146.809C256.156 146.261 256.112 145.705 255.959 145.174C255.805 144.643 255.544 144.146 255.192 143.714C250.13 137.992 245.152 136.915 237.041 139.942Z" fill="white"/>
</svg>
