<svg width="710" height="550" viewBox="0 0 710 550" fill="none" xmlns="http://www.w3.org/2000/svg">
<path d="M526.372 160.912C515.567 163.653 505.843 166.077 496.15 168.584C475.962 173.802 455.804 179.126 435.592 184.231C434.164 184.592 432.412 183.741 430.815 183.478C431.91 182.213 432.736 180.466 434.125 179.713C471.671 159.956 509.054 139.874 547.016 120.907C557.936 115.456 562.891 106.428 569.312 97.1892C561.471 90.9096 553.877 84.9236 546.429 78.8548C540.904 74.337 535.625 69.5106 529.906 65.3392C527.769 63.7881 524.504 63.4945 521.734 63.0352C473.788 55.2044 425.819 47.3913 377.827 39.5957C377.311 39.5869 376.804 39.4714 376.337 39.2569C374.855 38.2328 373.435 37.1109 372 36.0267C373.389 35.0629 374.662 33.5344 376.191 33.2182C383.723 31.652 391.332 30.4096 398.903 29.0393C452.277 19.4014 505.612 9.56786 559.055 0.351697C565.492 -0.755146 572.615 0.999233 579.275 2.18137C598.144 5.52449 616.913 9.36456 635.774 12.7227C639.548 13.4004 641.385 15.0418 642.404 18.5205C644.665 26.2307 647.327 33.8205 649.627 41.5157C650.399 44.0758 651.51 44.9116 654.358 44.5803C670.564 42.7205 686.717 41.0414 702.908 39.3999C704.49 39.2418 706.142 39.7463 707.762 39.9421C707.369 41.5986 707.338 43.4584 706.52 44.8965C698.802 58.4497 691 72.0556 683.028 85.5184C681.4 88.2667 681.585 89.7575 684.247 91.6776C691.278 96.76 698.039 102.219 704.961 107.392C709.067 110.486 710.834 113.686 709.098 119.251C703.055 138.632 697.884 158.209 691.895 177.529C690.483 182.047 687.265 186.113 684.718 190.33C654.574 240.155 624.414 289.971 594.239 339.776C593.807 340.529 593.552 341.47 592.919 341.899C591.614 342.693 590.252 343.395 588.844 344C588.304 342.494 587.054 340.808 587.301 339.43C588.968 330.906 591.052 322.458 592.85 313.957C601.905 271.26 610.909 228.547 619.861 185.819C620.317 183.544 620.154 181.193 619.39 178.998C615.084 167.372 610.384 155.89 606.077 144.264C604.997 141.35 603.67 141.004 600.768 141.546C591.445 143.3 583.79 147.426 576.713 153.804C546.615 180.737 516.092 207.173 485.747 233.82C483.332 235.936 481.217 238.398 478.724 240.416C477.698 241.252 476.039 241.35 474.673 241.779C474.835 240.273 474.511 238.496 475.244 237.352C478.246 232.683 481.657 228.271 484.752 223.663C497.717 204.357 510.646 185.031 523.54 165.685C524.365 164.436 525.044 163.163 526.372 160.912ZM566.387 109.831C568.517 109.078 569.165 108.973 569.721 108.687C586.63 99.8622 603.554 91.0677 620.37 82.1602C622.117 81.1306 623.608 79.737 624.738 78.0792C631.46 68.8028 638.167 59.5038 644.58 50.0166C645.74 48.1177 646.118 45.8597 645.637 43.6993C643.561 36.1246 640.883 28.7155 638.622 21.1859C637.804 18.4452 636.376 17.1576 633.405 16.6682C619.598 14.2211 605.854 11.4879 592.078 8.91279C583.411 7.28641 574.729 5.75791 565.545 4.09388C565.816 5.66756 565.916 6.45815 566.093 7.22617C571.75 31.4713 577.477 55.7014 582.948 79.9842C583.307 82.2729 582.841 84.6121 581.629 86.6027C577.037 94.0193 572.036 101.278 566.387 109.831ZM595.674 137.457L596.361 138.368C602.281 136.862 608.316 135.597 614.111 133.64C617.831 132.382 620.409 133.218 623.426 135.296C642.866 148.706 662.423 161.943 681.955 175.203C683.422 176.197 684.926 177.138 686.478 178.139C686.901 177.576 687.265 176.973 687.566 176.34C693.377 156.274 699.227 136.207 704.814 116.103C705.192 114.748 704.043 112.339 702.862 111.337C697.375 106.819 691.232 102.979 686.03 98.1756C680.404 92.9802 674.608 92.0992 667.315 93.959C657.954 96.3459 647.435 96.0522 639.077 100.148C630.719 104.244 624.229 112.369 616.967 118.731C609.862 124.971 602.764 131.213 595.674 137.457ZM401.056 32.9998L400.956 34.4154L569.312 40.1905L560.822 4.16917L401.056 32.9998ZM681.801 56.0929L681.029 55.34C679.061 56.3489 677.086 57.3428 675.133 58.3518C642.388 75.489 609.836 92.9877 576.79 109.553C565.214 115.343 556.014 122.436 549.925 133.708C546.383 140.266 541.753 146.259 536.806 153.668C551.886 149.76 565.607 146.365 579.205 142.57C582.616 141.635 585.776 139.985 588.466 137.736C610.338 118.927 631.946 99.8622 653.648 80.8501C663.048 72.6128 672.432 64.3604 681.801 56.0929ZM657.553 164.232C637.634 217.383 617.97 269.872 598.306 322.353L599.425 322.827C627.722 276.144 656.045 229.36 684.394 182.476L657.553 164.232ZM599.456 303.755L600.49 304.041L653.887 161.732L632.494 147.178C621.366 199.9 610.415 251.831 599.456 303.762V303.755ZM406.52 39.9195L575.609 67.5905C574.428 62.2521 573.533 58.0054 572.522 53.7814C570.346 44.392 570.33 44.3619 560.467 43.9929C520.815 42.6452 481.07 41.1995 441.326 39.9948C429.541 39.6183 417.726 39.927 406.551 39.927L406.52 39.9195ZM491.558 221.773L492.253 222.338L575.709 149.173C562.874 151.516 550.17 154.499 537.647 158.111C534.957 158.889 532.599 160.501 530.933 162.704C518.377 181.053 506.09 199.599 493.743 218.069C492.948 219.258 492.299 220.538 491.589 221.781L491.558 221.773ZM550.913 124.747L550.057 123.844L454.986 173.599C455.858 174.352 456.529 174.495 457.077 174.352C480.528 168.328 503.971 162.265 527.406 156.161C529.039 155.772 530.494 154.867 531.543 153.586C538.118 144.046 544.492 134.378 550.913 124.747ZM700.161 47.3888L699.242 46.5906L645.992 93.2738C655.74 92.0828 665.41 90.3507 674.956 88.086C676.219 87.6568 677.279 86.7919 677.935 85.6539C685.413 72.9365 692.775 60.1514 700.161 47.3888ZM632.78 74.3521L633.49 75.3836L689.055 46.2593C677.483 46.5018 665.934 47.3918 654.466 48.9248C652.309 49.2114 650.334 50.2555 648.909 51.8613C643.337 59.1951 638.12 66.8225 632.78 74.3521V74.3521ZM538.967 65.8738L538.457 67.0032L571.642 93.5449C573.001 91.6173 573.88 90.3975 574.729 89.1552C575.771 87.6493 576.867 86.1434 577.816 84.532C580.093 80.6543 577.901 72.4848 574.243 71.8146C562.489 69.7139 550.736 67.8541 538.967 65.8738ZM609.041 139.942L621.582 172.018C624.344 163.771 626.518 155.348 628.088 146.809C628.156 146.261 628.112 145.705 627.959 145.174C627.805 144.643 627.544 144.146 627.192 143.714C622.13 137.992 617.152 136.915 609.041 139.942Z" fill="white"/>
<line x1="500.248" y1="93.9689" x2="230.248" y2="162.969" stroke="white" stroke-width="2"/>
<line x1="639.919" y1="309.394" x2="536.919" y2="549.394" stroke="white" stroke-width="2"/>
<line x1="571.491" y1="191.479" x2="437.878" y2="436.038" stroke="white" stroke-width="2"/>
<line x1="407.142" y1="0.989814" x2="0.143222" y2="59.5302" stroke="white" stroke-width="2"/>
</svg>
