<svg width="103" height="179" viewBox="0 0 103 179" fill="none" xmlns="http://www.w3.org/2000/svg">
<path d="M20 18L149.571 212.151" stroke="white" stroke-width="2"/>
<path d="M33.1553 37.2533C33.5999 39.3871 33.9917 41.3072 34.4001 43.2219C35.2499 47.21 36.1209 51.193 36.9482 55.1845C37.0068 55.4665 36.8231 55.8007 36.7568 56.1102C36.5168 55.8848 36.1792 55.7078 36.043 55.4299C32.4773 47.9223 28.8462 40.4435 25.4403 32.8617C24.4615 30.6808 22.7231 29.632 20.9561 28.2951C19.646 29.7688 18.3961 31.197 17.1311 32.5958C16.1896 33.6335 15.1893 34.6203 14.3144 35.6988C13.989 36.102 13.9018 36.7366 13.7864 37.2733C11.8113 46.5614 9.8395 55.8543 7.87095 65.1518C7.8646 65.2523 7.83726 65.3503 7.79073 65.4394C7.57527 65.7194 7.34103 65.9864 7.11409 66.2568C6.9362 65.9769 6.64575 65.7146 6.59697 65.4134C6.35507 63.929 6.17779 62.4324 5.97488 60.9422C4.54903 50.4365 3.08417 39.9365 1.7422 29.4211C1.58119 28.1547 1.99132 26.7801 2.28431 25.4908C3.11321 21.8378 4.03934 18.2089 4.87114 14.5575C5.0387 13.827 5.37926 13.4833 6.07529 13.3159C7.61803 12.9443 9.14057 12.4932 10.6807 12.1139C11.1931 11.9864 11.3681 11.7771 11.3281 11.2182C11.1058 8.03784 10.9187 4.8697 10.7394 1.69435C10.7223 1.3841 10.8367 1.06627 10.8898 0.751692C11.2134 0.843501 11.5804 0.866369 11.857 1.03906C14.4643 2.66811 17.0813 4.31419 19.6685 5.99213C20.1966 6.33485 20.4926 6.31217 20.8956 5.80983C21.9621 4.48344 23.1005 3.21316 24.1839 1.90868C24.8317 1.13526 25.4794 0.819256 26.5626 1.20854C30.3357 2.56341 34.1552 3.74983 37.9169 5.09361C38.7964 5.41016 39.5705 6.07513 40.3804 6.6104C49.9497 12.9453 59.5169 19.2831 69.082 25.6238C69.2268 25.715 69.4104 25.7732 69.4895 25.9006C69.6345 26.1626 69.761 26.4348 69.8679 26.715C69.5657 26.8068 69.2215 27.0356 68.9516 26.975C67.2834 26.5725 65.6338 26.0893 63.9712 25.6614C55.6208 23.5076 47.267 21.3637 38.9098 19.2297C38.4646 19.1201 37.9987 19.1305 37.5585 19.2599C35.2243 19.9953 32.9148 20.8088 30.5806 21.5443C29.9956 21.7288 29.9153 21.9848 29.9964 22.5561C30.2595 24.3917 31.0058 25.9234 32.2019 27.3625C37.2511 33.4813 42.1985 39.6784 47.189 45.8428C47.5852 46.3334 48.0525 46.7685 48.4287 47.2733C48.5846 47.4812 48.5891 47.806 48.6616 48.0765C48.3657 48.0313 48.0119 48.0785 47.7924 47.925C46.8974 47.2968 46.0567 46.591 45.1744 45.9452C41.4781 43.2398 37.7775 40.5411 34.0726 37.8494C33.8332 37.6769 33.588 37.5328 33.1553 37.2533Z" fill="white"/>
</svg>
