<svg width="193" height="143" viewBox="0 0 193 143" fill="none" xmlns="http://www.w3.org/2000/svg">
<g filter="url(#filter0_dd_4513_1595)">
<path d="M155.123 31.4832L5.00041 133.202" stroke="#E10000" stroke-width="2"/>
</g>
<g filter="url(#filter1_dd_4513_1595)">
<path d="M151.2 33.0956C148.987 33.6621 146.996 34.1632 145.01 34.6814C140.876 35.7596 136.747 36.8596 132.608 37.9147C132.315 37.9894 131.956 37.8154 131.628 37.7618C131.853 37.5018 132.021 37.1429 132.305 36.9879C139.991 32.9189 147.644 28.7834 155.416 24.8766C157.651 23.7537 158.663 21.8988 159.976 20C158.367 18.7138 156.809 17.4878 155.28 16.2447C154.147 15.3194 153.063 14.3305 151.89 13.4763C151.451 13.1587 150.782 13.0996 150.215 13.0063C140.388 11.416 130.556 9.82933 120.72 8.24628C120.614 8.24465 120.51 8.22112 120.414 8.17726C120.11 7.96759 119.819 7.73781 119.525 7.51575C119.809 7.31742 120.069 7.00322 120.382 6.93776C121.925 6.61359 123.484 6.35585 125.035 6.07185C135.967 4.07445 146.892 2.03688 157.839 0.126006C159.158 -0.103492 160.618 0.254084 161.983 0.494361C165.85 1.17386 169.698 1.95541 173.563 2.638C174.337 2.77575 174.714 3.11203 174.924 3.82573C175.39 5.4076 175.938 6.96459 176.412 8.54335C176.571 9.06857 176.799 9.23973 177.383 9.17071C180.703 8.78316 184.012 8.43273 187.329 8.09002C187.653 8.05699 187.991 8.15996 188.324 8.19957C188.244 8.53973 188.238 8.9215 188.071 9.217C186.494 12.0018 184.9 14.7974 183.272 17.5638C182.939 18.1285 182.978 18.4345 183.524 18.8276C184.966 19.8684 186.353 20.9865 187.774 22.0459C188.616 22.6796 188.979 23.3359 188.625 24.4787C187.394 28.4592 186.342 32.4795 185.122 36.4476C184.834 37.3755 184.176 38.2112 183.656 39.0777C177.497 49.316 171.335 59.5524 165.17 69.7866C165.082 69.9413 165.03 70.1346 164.9 70.223C164.633 70.3863 164.354 70.5309 164.066 70.6556C163.955 70.3467 163.698 70.0009 163.748 69.718C164.087 67.9678 164.511 66.2329 164.876 64.4873C166.716 55.7196 168.546 46.9489 170.365 38.175C170.457 37.7079 170.423 37.2252 170.266 36.7749C169.379 34.39 168.412 32.0347 167.526 29.6499C167.303 29.0521 167.031 28.9815 166.437 29.0938C164.527 29.4573 162.96 30.307 161.512 31.6186C155.355 37.1579 149.11 42.5953 142.902 48.076C142.408 48.5111 141.976 49.0173 141.465 49.4324C141.255 49.6043 140.916 49.625 140.636 49.7136C140.668 49.4044 140.601 49.0398 140.751 48.8046C141.365 47.8453 142.062 46.9383 142.694 45.9913C145.344 42.0238 147.986 38.0522 150.621 34.0765C150.79 33.8197 150.929 33.5582 151.2 33.0956Z" fill="#E10000"/>
</g>
<defs>
<filter id="filter0_dd_4513_1595" x="0.439453" y="30.6553" width="159.244" height="111.375" filterUnits="userSpaceOnUse" color-interpolation-filters="sRGB">
<feFlood flood-opacity="0" result="BackgroundImageFix"/>
<feColorMatrix in="SourceAlpha" type="matrix" values="0 0 0 0 0 0 0 0 0 0 0 0 0 0 0 0 0 0 127 0" result="hardAlpha"/>
<feOffset dy="4"/>
<feGaussianBlur stdDeviation="2"/>
<feComposite in2="hardAlpha" operator="out"/>
<feColorMatrix type="matrix" values="0 0 0 0 0 0 0 0 0 0 0 0 0 0 0 0 0 0 0.25 0"/>
<feBlend mode="normal" in2="BackgroundImageFix" result="effect1_dropShadow_4513_1595"/>
<feColorMatrix in="SourceAlpha" type="matrix" values="0 0 0 0 0 0 0 0 0 0 0 0 0 0 0 0 0 0 127 0" result="hardAlpha"/>
<feOffset dy="4"/>
<feGaussianBlur stdDeviation="2"/>
<feComposite in2="hardAlpha" operator="out"/>
<feColorMatrix type="matrix" values="0 0 0 0 0 0 0 0 0 0 0 0 0 0 0 0 0 0 0.25 0"/>
<feBlend mode="normal" in2="effect1_dropShadow_4513_1595" result="effect2_dropShadow_4513_1595"/>
<feBlend mode="normal" in="SourceGraphic" in2="effect2_dropShadow_4513_1595" result="shape"/>
</filter>
<filter id="filter1_dd_4513_1595" x="115.525" y="0.0522461" width="77.2344" height="78.6033" filterUnits="userSpaceOnUse" color-interpolation-filters="sRGB">
<feFlood flood-opacity="0" result="BackgroundImageFix"/>
<feColorMatrix in="SourceAlpha" type="matrix" values="0 0 0 0 0 0 0 0 0 0 0 0 0 0 0 0 0 0 127 0" result="hardAlpha"/>
<feOffset dy="4"/>
<feGaussianBlur stdDeviation="2"/>
<feComposite in2="hardAlpha" operator="out"/>
<feColorMatrix type="matrix" values="0 0 0 0 0 0 0 0 0 0 0 0 0 0 0 0 0 0 0.25 0"/>
<feBlend mode="normal" in2="BackgroundImageFix" result="effect1_dropShadow_4513_1595"/>
<feColorMatrix in="SourceAlpha" type="matrix" values="0 0 0 0 0 0 0 0 0 0 0 0 0 0 0 0 0 0 127 0" result="hardAlpha"/>
<feOffset dy="4"/>
<feGaussianBlur stdDeviation="2"/>
<feComposite in2="hardAlpha" operator="out"/>
<feColorMatrix type="matrix" values="0 0 0 0 0 0 0 0 0 0 0 0 0 0 0 0 0 0 0.25 0"/>
<feBlend mode="normal" in2="effect1_dropShadow_4513_1595" result="effect2_dropShadow_4513_1595"/>
<feBlend mode="normal" in="SourceGraphic" in2="effect2_dropShadow_4513_1595" result="shape"/>
</filter>
</defs>
</svg>
