<svg width="261" height="283" viewBox="0 0 261 283" fill="none" xmlns="http://www.w3.org/2000/svg">
<path d="M198.526 53.6592C195.587 54.9601 192.939 56.1193 190.305 57.2998C184.819 59.7573 179.346 62.2422 173.847 64.6698C173.459 64.8415 172.914 64.6959 172.444 64.7042C172.69 64.3006 172.834 63.7781 173.191 63.5006C182.865 56.1634 192.476 48.7453 202.311 41.6047C205.14 39.5519 206.079 36.8166 207.425 33.949C204.857 32.6174 202.374 31.3541 199.93 30.0606C198.115 29.0968 196.354 28.0355 194.503 27.1768C193.811 26.8581 192.864 26.9424 192.049 26.9562C177.954 27.2267 163.854 27.5031 149.747 27.7856C149.6 27.8093 149.449 27.8032 149.305 27.7677C148.828 27.5609 148.363 27.3239 147.897 27.0982C148.242 26.7626 148.525 26.2775 148.945 26.1132C151.012 25.3011 153.118 24.5742 155.206 23.814C169.931 18.4612 184.633 13.0565 199.4 7.81622C201.178 7.18597 203.303 7.30844 205.266 7.29684C210.827 7.26231 216.385 7.36963 221.945 7.33964C223.058 7.33522 223.668 7.69406 224.142 8.59992C225.193 10.6075 226.353 12.5617 227.414 14.5632C227.769 15.2288 228.13 15.4026 228.925 15.1673C233.453 13.8355 237.974 12.5562 242.508 11.2853C242.951 11.1618 243.449 11.2171 243.922 11.189C243.897 11.6648 243.986 12.1782 243.828 12.6154C242.339 16.7359 240.829 20.8753 239.263 24.9839C238.943 25.8226 239.074 26.2236 239.935 26.6173C242.209 27.6604 244.425 28.8208 246.673 29.8942C248.008 30.5382 248.681 31.3295 248.478 32.9488C247.774 38.5886 247.329 44.2381 246.637 49.8586C246.472 51.1734 245.768 52.4553 245.263 53.7446C239.284 68.9827 233.299 84.2187 227.31 99.4528C227.227 99.6819 227.204 99.9538 227.046 100.104C226.715 100.388 226.363 100.651 225.993 100.888C225.76 100.501 225.314 100.1 225.312 99.7085C225.339 97.2784 225.489 94.8478 225.555 92.4172C225.891 80.2079 226.211 67.997 226.517 55.7845C226.527 55.1353 226.357 54.4963 226.023 53.9309C224.182 50.9491 222.236 48.0266 220.395 45.0449C219.934 44.2976 219.537 44.2694 218.737 44.5654C216.169 45.5199 214.202 47.0428 212.518 49.1561C205.346 58.0914 198.028 66.9114 190.771 75.7804C190.193 76.4849 189.719 77.2695 189.114 77.951C188.865 78.233 188.397 78.3439 188.03 78.5311C187.997 78.1084 187.81 77.6358 187.959 77.2837C188.57 75.847 189.312 74.46 189.952 73.0352C192.636 67.066 195.308 61.093 197.969 55.1163C198.139 54.7305 198.266 54.3459 198.526 53.6592Z" fill="white"/>
<path d="M-21 282L203 57.9998" stroke="white" stroke-width="2"/>
</svg>
