<svg width="175" height="398" viewBox="0 0 175 398" fill="none" xmlns="http://www.w3.org/2000/svg">
<path d="M35.0634 37.4596C35.848 39.3457 36.5461 41.0441 37.2593 42.735C38.7438 46.2569 40.2475 49.7707 41.7111 53.2994C41.8147 53.5487 41.6957 53.8852 41.6846 54.1799C41.4174 54.0121 41.0652 53.9044 40.8882 53.6714C36.2164 47.3602 31.4871 41.086 26.9555 34.6808C25.6528 32.8382 23.8159 32.1577 21.9031 31.2174C20.9008 32.7822 19.9483 34.2956 18.9764 35.7844C18.2525 36.8894 17.4639 37.9571 16.8106 39.0888C16.5679 39.5116 16.5918 40.1081 16.5721 40.6193C16.2536 49.4631 15.939 58.3107 15.6283 67.162C15.6392 67.2553 15.6297 67.3497 15.6003 67.439C15.4418 67.7309 15.2632 68.0139 15.0921 68.2989C14.875 68.0709 14.5534 67.8772 14.456 67.6088C13.9745 66.2858 13.5527 64.9411 13.1075 63.6065C9.97304 54.1969 6.80235 44.799 3.74639 35.3669C3.37894 34.2309 3.53859 32.9029 3.60077 31.6722C3.77578 28.1855 4.0477 24.7052 4.22576 21.2195C4.26248 20.522 4.52966 20.1513 5.16603 19.8848C6.57643 19.2936 7.95413 18.6327 9.36072 18.0349C9.8285 17.8348 9.96025 17.6143 9.82778 17.1079C9.07879 14.2254 8.36547 11.3484 7.65836 8.46359C7.58969 8.18165 7.64528 7.87144 7.64295 7.57414C7.96742 7.60591 8.32169 7.56738 8.61502 7.68098C11.3795 8.75305 14.1562 9.83919 16.9097 10.9594C17.4719 11.1882 17.7507 11.1194 18.0507 10.5931C18.8452 9.20291 19.7179 7.85258 20.5322 6.47979C21.0203 5.66497 21.5854 5.26994 22.6855 5.45149C26.5169 6.08288 30.3642 6.55216 34.1829 7.17522C35.0761 7.32307 35.9275 7.80775 36.7911 8.16761C46.9976 12.429 57.2026 16.6933 67.406 20.9607C67.5597 21.0209 67.7448 21.0446 67.8418 21.1487C68.0245 21.3656 68.1912 21.5949 68.3405 21.8347C68.0675 21.9679 67.7774 22.2337 67.5095 22.2218C65.8486 22.123 64.192 21.9472 62.5322 21.8241C54.1953 21.2019 45.8567 20.5894 37.5165 19.9865C37.0729 19.9581 36.6299 20.0433 36.2313 20.2334C34.1266 21.2868 32.0586 22.4079 29.9539 23.4614C29.4264 23.7256 29.393 23.9735 29.5668 24.4847C30.1278 26.1265 31.0989 27.4111 32.4839 28.5377C38.3378 33.3338 44.1077 38.2184 49.9133 43.0659C50.3744 43.4519 50.894 43.7753 51.3384 44.1776C51.5223 44.3431 51.5814 44.6404 51.6963 44.8769C51.4061 44.8834 51.0762 44.984 50.8408 44.8788C49.8802 44.4474 48.9583 43.9361 48.0068 43.4866C44.0208 41.6034 40.0318 39.7271 36.0399 37.8578C35.7822 37.7384 35.5237 37.6459 35.0634 37.4596Z" fill="#E10000"/>
<path d="M26.5859 29.4797L409.001 397" stroke="#E10000" stroke-width="2"/>
</svg>
