<svg width="391" height="318" viewBox="0 0 391 318" fill="none" xmlns="http://www.w3.org/2000/svg">
<rect x="257.389" y="-78.2593" width="319.745" height="514.772" transform="rotate(30 257.389 -78.2593)" fill="#CDD3DB"/>
<path d="M279.528 121.641C276.589 122.992 273.941 124.197 271.307 125.423C265.82 127.976 260.348 130.557 254.849 133.078C254.46 133.257 253.916 133.106 253.446 133.114C253.692 132.695 253.836 132.152 254.193 131.864C263.867 124.242 273.478 116.537 283.313 109.119C286.142 106.987 287.081 104.145 288.427 101.167C285.859 99.7834 283.376 98.4712 280.932 97.1275C279.117 96.1264 277.356 95.0239 275.505 94.1319C274.813 93.8008 273.866 93.8884 273.051 93.9027C258.956 94.1837 244.856 94.4709 230.749 94.7643C230.602 94.7889 230.451 94.7826 230.306 94.7457C229.83 94.5309 229.365 94.2847 228.899 94.0502C229.244 93.7017 229.527 93.1978 229.947 93.027C232.014 92.1834 234.12 91.4284 236.208 90.6387C250.933 85.0784 265.635 79.4641 280.402 74.0207C282.18 73.366 284.305 73.4932 286.268 73.4812C291.829 73.4453 297.387 73.5568 302.947 73.5256C304.059 73.5211 304.67 73.8938 305.144 74.8348C306.195 76.9202 307.355 78.9502 308.416 81.0293C308.771 81.7206 309.132 81.9012 309.927 81.6568C314.454 80.2734 318.976 78.9445 323.51 77.6243C323.953 77.496 324.451 77.5534 324.924 77.5242C324.899 78.0185 324.988 78.5518 324.83 79.0059C323.341 83.2862 321.831 87.5861 320.265 91.8539C319.945 92.7252 320.076 93.1417 320.937 93.5507C323.211 94.6342 325.427 95.8396 327.675 96.9547C329.01 97.6236 329.683 98.4456 329.48 100.128C328.776 105.986 328.331 111.855 327.639 117.693C327.474 119.059 326.77 120.39 326.265 121.73C320.286 137.559 314.301 153.385 308.312 169.21C308.229 169.448 308.205 169.731 308.047 169.886C307.717 170.182 307.365 170.454 306.995 170.701C306.762 170.299 306.316 169.883 306.314 169.476C306.341 166.951 306.491 164.427 306.557 161.902C306.893 149.219 307.213 136.535 307.519 123.849C307.529 123.174 307.359 122.511 307.025 121.923C305.184 118.826 303.238 115.79 301.397 112.693C300.936 111.916 300.539 111.887 299.739 112.195C297.171 113.186 295.203 114.768 293.52 116.963C286.348 126.245 279.03 135.407 271.773 144.62C271.195 145.352 270.721 146.167 270.116 146.875C269.867 147.168 269.399 147.283 269.032 147.477C268.998 147.038 268.812 146.547 268.961 146.181C269.572 144.689 270.314 143.248 270.954 141.768C273.638 135.568 276.31 129.363 278.971 123.155C279.141 122.754 279.267 122.354 279.528 121.641Z" fill="white"/>
<path d="M60.002 341L284.002 117" stroke="white" stroke-width="2"/>
</svg>
